<?xml version="1.0" encoding="UTF-8"?>
<!DOCTYPE svg PUBLIC "-//W3C//DTD SVG 1.1//EN" "http://www.w3.org/Graphics/SVG/1.1/DTD/svg11.dtd">
<!-- Creator: CorelDRAW -->
<svg xmlns="http://www.w3.org/2000/svg" xml:space="preserve" width="363.26mm" height="30.0883mm" version="1.1" style="shape-rendering:geometricPrecision; text-rendering:geometricPrecision; image-rendering:optimizeQuality; fill-rule:evenodd; clip-rule:evenodd"
viewBox="0 0 28339.46 2347.31"
 xmlns:xlink="http://www.w3.org/1999/xlink"
 xmlns:xodm="http://www.corel.com/coreldraw/odm/2003">
 <defs>
  <style type="text/css">
   <![CDATA[
    .fil2 {fill:#F7F7F7;fill-rule:nonzero}
    .fil1 {fill:white;fill-rule:nonzero}
    .fil0 {fill:url(#id2);fill-rule:nonzero}
   ]]>
  </style>
   <mask id="id0">
  <linearGradient id="id1" gradientUnits="userSpaceOnUse" x1="4859.59" y1="1840.53" x2="25109.63" y2="216.41">
   <stop offset="0" style="stop-opacity:1; stop-color:white"/>
   <stop offset="0.431373" style="stop-opacity:0.501961; stop-color:white"/>
   <stop offset="1" style="stop-opacity:0; stop-color:white"/>
  </linearGradient>
    <rect style="fill:url(#id1)" x="-265.51" y="-237.99" width="29426.38" height="2619.05"/>
   </mask>
  <linearGradient id="id2" gradientUnits="userSpaceOnUse" x1="4859.59" y1="1840.53" x2="25109.63" y2="216.41">
   <stop offset="0" style="stop-opacity:1; stop-color:gray"/>
   <stop offset="0.431373" style="stop-opacity:1; stop-color:#BFBFBF"/>
   <stop offset="1" style="stop-opacity:1; stop-color:white"/>
  </linearGradient>
 </defs>
 <g id="Layer_x0020_1">
  <metadata id="CorelCorpID_0Corel-Layer"/>
  <path class="fil0" style="mask:url(#id0)" d="M28339.46 54.63c-1544.58,-103.59 -4707.98,-126.23 -7956.65,552.57 -4103.23,857.36 -6213.08,1209.38 -11629.3,1074.77 -6220.73,-154.62 -8155.31,267.01 -8753.5,521.42l0 143.93 28339.46 0 0 -2292.69z"/>
  <path class="fil1" d="M28339.46 609.42c-323.95,-59.57 -767.75,-67.04 -1507.29,-27.92 -1635.65,86.52 -6539.1,778.03 -8763.31,1046.48 -3033.12,366.08 -5782.83,422.45 -9315.36,201.59 -4873.34,-304.69 -7609.33,-131.03 -8753.5,245.55l0 272.19 28339.46 0 0 -1737.89z"/>
  <path class="fil2" d="M-0 2211.98l0 72.6c1544.04,-222.17 6803.63,-121.27 7988.76,-89.27 2955.69,79.82 6183.17,53.82 9250.18,-76.99 2297.35,-97.99 4534.68,-254.31 6977.34,-315.08 1345.69,-33.48 2810.17,-31.03 4123.17,21.45l0 -659.71 0 -555.55c-323.95,-59.57 -767.75,-67.04 -1507.29,-27.92 -1635.65,86.52 -6539.1,778.03 -8763.31,1046.48 -3033.12,366.08 -5782.83,422.45 -9315.36,201.59 -1710.63,-106.95 -3157.91,-154.97 -4365.43,-155.95 -2232.53,-1.83 -3645.52,157.11 -4388.07,401.5l0 128.26 0 8.6z"/>
 </g>
</svg>
