<?xml version="1.0" encoding="UTF-8"?>
<!DOCTYPE svg PUBLIC "-//W3C//DTD SVG 1.1//EN" "http://www.w3.org/Graphics/SVG/1.1/DTD/svg11.dtd">
<!-- Creator: CorelDRAW -->
<svg xmlns="http://www.w3.org/2000/svg" xml:space="preserve" width="184.706mm" height="70.579mm" version="1.1"
  style="shape-rendering:geometricPrecision; text-rendering:geometricPrecision; image-rendering:optimizeQuality; fill-rule:evenodd; clip-rule:evenodd"
  viewBox="0 0 20121.8 7688.85" xmlns:xlink="http://www.w3.org/1999/xlink"
  xmlns:xodm="http://www.corel.com/coreldraw/odm/2003">
  <defs>
    <style type="text/css">
      <![CDATA[
      .str1 {
        stroke: #ebeff5;
        stroke-width: 36.41;
        stroke-miterlimit: 10
      }

      .str0 {
        stroke: #d6ddec;
        stroke-width: 34.38;
        stroke-miterlimit: 10
      }

      .str2 {
        stroke: #e9edf7;
        stroke-width: 38.43;
        stroke-miterlimit: 10
      }

      .fil0 {
        fill: none;
        fill-rule: nonzero
      }
      ]]>
    </style>
  </defs>
  <g id="Layer_x0020_1">
    <metadata id="CorelCorpID_0Corel-Layer" />
    <path class="fil0 str0"
      d="M3.25 7526.54c109.32,-18.55 227.67,-41.03 353.41,-67.97l-353.41 67.97zm353.41 -67.97c168.88,-36.2 351.18,-80.54 543.09,-134.5m0 0c445.08,-125.14 941.98,-302.13 1443.71,-549.8m0 0c121.46,-59.95 243.21,-124.03 364.57,-192.53 -121.36,68.5 -243.11,132.58 -364.57,192.53zm364.57 -192.53c84.32,-47.6 168.44,-97.33 252.16,-149.26 356.82,-221.39 681.56,-434.54 989.22,-638.12m0 0l101.14 -66.98 -101.14 66.98zm101.14 -66.98c1081.97,-716.89 1968,-1310.59 3329.51,-1719.11 1767.28,-535.19 2853.75,-721.25 4195.18,-823.3m0 0c59.37,-4.51 119.22,-8.88 179.69,-13.09 -60.46,4.22 -120.31,8.58 -179.69,13.09zm179.69 -13.09l58.67 -4.03m0 0l60.19 -4.03 -60.19 4.03zm60.19 -4.03c778.81,-51.33 1660.08,-82.19 2810.71,-139.82 987.25,-49.45 1874.9,-99.09 2698.58,-341.69m0 0c38.66,-11.4 77.18,-23.18 115.56,-35.44 -38.38,12.26 -76.9,24.04 -115.56,35.44zm115.56 -35.44c932.29,-297.72 1783.64,-858.05 2606.84,-1966.77 -823.2,1108.72 -1674.54,1669.05 -2606.84,1966.77z" />
    <path class="fil0 str1"
      d="M3.25 7594.42c81.18,-6.98 167.4,-15.88 257.87,-27.14m0 0c731.9,-91.05 1743.26,-336.73 2639.52,-976.95 28.11,-20.08 55.98,-40.12 83.73,-60.12m0 0c308.23,-222.31 594.6,-440.43 869.08,-651.26m0 0c1097.32,-842.9 2004.49,-1569.19 3358.04,-1980.07 1750.52,-534.03 2848.21,-667.09 4181.4,-715.78m0 0c135.1,-4.92 272.68,-9 413.53,-12.53m0 0c765.9,-19.2 1630.54,-22.51 2742.82,-62.86 998.89,-39.26 1892.15,-94.27 2727.73,-379.06m0 0c997.96,-340.14 1913.61,-1008.2 2828.5,-2369.03 -914.89,1360.83 -1830.54,2028.89 -2828.5,2369.03z" />
    <path class="fil0 str2"
      d="M3.25 7669.64c740.83,-3.22 1897.89,-152.78 2837.83,-921.44 1511.65,-1236.16 2542.97,-2448.9 4201.85,-2958.7 2893.72,-889.26 4045.3,-514.23 7371.05,-598.05 2217.95,-55.91 3895.75,-283.31 5691.49,-3181.32" />
  </g>
</svg>