<?xml version="1.0" encoding="UTF-8"?>
<!DOCTYPE svg PUBLIC "-//W3C//DTD SVG 1.1//EN" "http://www.w3.org/Graphics/SVG/1.1/DTD/svg11.dtd">
<!-- Creator: CorelDRAW -->
<svg xmlns="http://www.w3.org/2000/svg" xml:space="preserve" width="78.9306mm" height="26.2385mm" version="1.1"
  style="shape-rendering:geometricPrecision; text-rendering:geometricPrecision; image-rendering:optimizeQuality; fill-rule:evenodd; clip-rule:evenodd"
  viewBox="0 0 4101.12 1363.32" xmlns:xlink="http://www.w3.org/1999/xlink"
  xmlns:xodm="http://www.corel.com/coreldraw/odm/2003">
  <defs>
    <style type="text/css">
      <![CDATA[
      .fil0 {
        fill: white;
        fill-rule: nonzero
      }
      ]]>
    </style>
  </defs>
  <g id="Layer_x0020_1">
    <metadata id="CorelCorpID_0Corel-Layer" />
    <g id="_1663520171952">
      <path class="fil0"
        d="M1317.83 680.2l0 0c3.15,0.15 5.72,1.24 7.7,3.37 1.98,2.05 3,4.69 3,7.85 -0.15,3 -1.24,5.42 -3.3,7.4 -2.13,1.91 -4.69,2.93 -7.84,3.08 -38.93,-0.88 -79.18,-1.39 -120.76,-1.68 -18.77,45.39 -36.73,89.01 -53.89,130.8 12.17,107.86 -42.46,240.42 -163.87,397.83 -2.49,2.86 -5.35,4.26 -8.65,4.26 -1.83,0 -3.59,-0.51 -5.35,-1.47 -2.42,-1.47 -4.1,-3.45 -4.91,-5.94 -0.88,-2.49 -0.81,-5.06 0.22,-7.63 0.15,0 0.22,-0.15 0.22,-0.44 2.71,-6.67 18.55,-45.38 47.58,-115.99 28.96,-70.61 66.36,-161.6 112.18,-272.97 -3.96,-29.92 -13.78,-57.56 -29.4,-82.93 -10.19,-16.64 -22.36,-31.89 -36.51,-45.75 -64.3,0.15 -128.75,0.44 -193.35,0.88 -5.57,0 -11.07,0.07 -16.5,0.22 -64.74,0.37 -129.34,0.73 -193.78,1.03 -39.82,91.06 -76.77,176.11 -110.86,255 -34.1,78.89 -70.98,164.6 -110.79,257.13l-61.45 142.39c-2.49,4.4 -5.72,6.67 -9.9,6.67 -1.47,0 -2.86,-0.29 -4.32,-0.88 -2.86,-1.32 -4.84,-3.3 -5.87,-6.01 -1.1,-2.71 -1.03,-5.5 0.07,-8.36l61.44 -142.46c73.03,-169.81 145.61,-337.64 217.83,-503.48 -116.87,0.44 -225.6,-0.96 -326.27,-4.1 -1.32,0 -11.51,-0.59 -30.5,-1.91 -19.06,-1.25 -42.67,-3.3 -70.9,-6.09 -28.23,-2.78 -56.75,-6.45 -85.49,-10.85 -28.81,-4.47 -53.6,-9.83 -74.42,-16.13 -20.83,-6.31 -33.36,-13.64 -37.54,-21.93 -2.13,-4.32 -2.2,-9.53 -0.3,-15.69 1.91,-6.16 8.06,-12.69 18.4,-19.51 19.58,-12.32 53.3,-24.12 101.11,-35.34 47.88,-11.29 105.29,-20.46 172.31,-27.49 67.01,-7.11 139.23,-10.49 216.73,-10.19 53.45,-0.15 115.41,3.52 186.01,11.15 44.28,-100.82 98.84,-224.8 163.73,-371.81 8.58,-3.59 15.61,-1.61 21.04,6.02 -64.15,145.61 -118.26,268.57 -162.18,368.8 42.38,5.57 84.61,13.78 126.7,24.56 42.16,10.85 81.82,24.93 119.14,42.23 37.32,17.3 70.02,38.71 98.25,64.23 40.55,0 80.36,0.07 119.44,0.22 90.11,-218.79 178.83,-433.1 266.15,-642.94 8.43,-3.81 15.54,-1.91 21.26,5.87 -86.52,207.64 -174.5,420.05 -264.02,637.29 38.71,0.29 76.1,0.88 112.4,1.69zm-681.36 0.22l0 0c15.76,-36.37 32.63,-75.08 50.66,-116.21 -65.99,-6.89 -131.39,-10.05 -196.13,-9.68 -61.81,0.29 -120.61,3.15 -176.34,8.51 -55.72,5.35 -104.33,12.02 -145.83,19.87 -38.56,7.33 -68.41,14.37 -89.67,21.26 -21.26,6.89 -36.22,12.91 -44.73,18.04 -8.51,5.21 -12.76,8.8 -12.76,10.99 6.45,6.16 26.54,12.32 60.34,18.55 33.8,6.24 71.41,11.59 112.91,16.13 41.43,4.47 76.91,7.33 106.39,8.51 103.16,3.15 214.83,4.47 335.14,4.03zm207.71 -1.25l0 0c6.67,0 13.42,0 20.17,0 55.13,-0.44 110.27,-0.73 165.4,-0.88 -39.08,-30.35 -86.29,-54.55 -141.58,-72.51 -55.28,-17.96 -114.75,-30.87 -178.46,-38.79 -17.67,39.96 -34.17,77.72 -49.64,113.21 61.3,-0.15 122.66,-0.51 184.1,-1.03zm170.98 462.21l0 0c65.11,-97.96 100.6,-184.18 106.32,-258.82 -44.95,109.39 -80.43,195.69 -106.32,258.82zm119.88 -349l0 0c9.68,-23.68 19.65,-47.88 29.84,-72.66 2.71,-6.45 5.43,-12.98 8.14,-19.72 -29.33,-0.15 -59.1,-0.22 -89.16,-0.22 24.49,28.08 41.57,58.95 51.17,92.61zm334.41 -68.12l0 0c-10.78,13.35 -21.34,23.91 -31.82,31.75 -10.41,7.92 -20.31,13.78 -29.62,17.67 -9.32,3.81 -17.53,6.38 -24.71,7.48 -7.11,1.17 -12.68,1.76 -16.5,1.76 -0.73,0 -1.39,0 -1.98,0 -23.02,-1.17 -37.61,-11.15 -43.77,-29.91 -3.74,-12.98 -2.35,-26.69 4.25,-40.98 6.6,-14.3 17.16,-26.69 31.6,-37.18 8.87,-6.16 18.26,-9.97 28.16,-11.36 6.3,-0.73 12.1,0.15 17.45,2.57 5.43,2.42 8.73,6.67 10.05,12.68 1.39,10.71 -2.2,19.58 -10.85,26.62 -8.72,7.04 -19.14,12.61 -31.31,16.79 -12.17,4.1 -22.95,7.26 -32.41,9.38 -1.17,6.16 -1.02,11.59 0.44,16.13 2.28,6.6 6.01,11.07 11.29,13.42 5.21,2.42 10.49,3.6 15.76,3.6 3.89,0.29 10.41,-0.59 19.58,-2.49 9.17,-1.91 19.8,-6.6 31.96,-13.93 12.17,-7.4 24.86,-19.21 38.05,-35.34 1.69,-2.05 3.74,-3.15 6.23,-3.44 2.42,-0.29 4.62,0.37 6.6,1.91 2.06,1.76 3.15,3.74 3.45,6.16 0.29,2.35 -0.37,4.62 -1.91,6.74zm-102.06 -34.6l0 0c-8.58,6.3 -15.32,13.12 -20.17,20.46 14.01,-4.03 24.49,-7.85 31.38,-11.44 6.82,-3.6 11.36,-6.75 13.42,-9.53 2.05,-2.78 2.94,-4.98 2.64,-6.53 -1.1,-0.73 -2.93,-1.1 -5.35,-1.1 -0.59,0 -1.17,0.07 -1.91,0.22 -6.89,0.88 -13.56,3.52 -20.01,7.92zm198.48 23.61l0 0c2.27,1.17 3.81,2.93 4.62,5.21 0.81,2.27 0.66,4.55 -0.3,6.89 -7.48,15.32 -16.35,27.5 -26.54,36.59 -10.26,9.09 -20.97,15.61 -32.12,19.57 -11.22,3.89 -21.55,5.87 -31.16,5.87 -1.83,0 -3.66,-0.07 -5.35,-0.22 -18.77,-1.69 -30.28,-8.29 -34.6,-19.72 -3.01,-11.73 -1.69,-22.73 3.96,-32.85 5.64,-10.19 11.51,-18.62 17.52,-25.37 0.15,0 0.3,-0.07 0.44,-0.22 0,-0.15 0.07,-0.22 0.22,-0.22 -4.98,-3.15 -9.38,-6.89 -13.12,-11.15 -5.13,-6.6 -7.55,-12.39 -7.26,-17.45 0,-0.59 0,-1.03 0,-1.47 -0.29,-4.62 1.76,-10.04 6.31,-16.42 4.47,-6.38 11.88,-11.44 21.99,-15.18 6.74,-2.71 13.2,-2.78 19.36,-0.22 4.4,1.91 7.4,4.69 8.8,8.36 1.47,4.18 1.39,8.43 -0.22,12.68 -1.54,4.33 -3.89,7.85 -6.89,10.56 -6.67,5.87 -13.86,10.34 -21.48,13.34 2.93,1.98 6.01,3.67 9.46,5.13 2.49,1.03 4.18,2.64 5.21,4.91 0.81,2.28 0.81,4.7 0,7.11 -1.62,3.15 -4.47,7.19 -8.65,12.03 -4.99,5.57 -9.68,12.02 -14.15,19.35 -4.4,7.26 -5.79,14.44 -4.1,21.48 0.29,1.1 1.98,2.49 5.06,4.04 3.08,1.61 7.55,2.56 13.42,3 12.46,1.17 25.95,-2.13 40.4,-9.75 14.44,-7.7 26.76,-21.48 36.95,-41.57 1.17,-2.27 2.86,-3.89 5.13,-4.69 2.35,-0.88 4.69,-0.73 7.11,0.37zm-104.85 -37.54l0 0c6.6,-2.28 12.68,-5.87 18.26,-10.78 0.58,-0.44 1.02,-0.95 1.32,-1.68 -0.88,0 -1.91,0.29 -3.23,0.88 -8.73,3.52 -14.15,7.4 -16.35,11.59zm265.35 33.28l0 0c2.13,1.39 3.52,3.3 4.18,5.58 0.66,2.27 0.37,4.62 -0.73,6.89 -10.93,18.77 -23.68,33.95 -38.35,45.6 -14.66,11.73 -28.52,17.67 -41.57,17.97 0,0 -0.07,0 -0.22,0 -10.33,0 -18.03,-4.26 -23.17,-12.69 -5.21,-9.01 -5.79,-21.7 -1.76,-37.98 -13.86,15.4 -27.21,27.71 -39.82,36.81 -12.68,9.09 -23.46,12.9 -32.33,11.51 -6.3,-1.32 -10.7,-4.91 -13.12,-10.78 -3,-9.75 -1.02,-22.66 5.94,-38.79 6.89,-16.06 14.74,-31.09 23.46,-45.09 8.72,-13.93 14.52,-22.73 17.23,-26.32 1.39,-1.98 3.37,-3.23 5.79,-3.6 2.42,-0.44 4.69,0.07 6.89,1.47 2.13,1.62 3.37,3.52 3.74,5.94 0.36,2.35 -0.22,4.62 -1.62,6.75 -13.93,20.16 -25.22,39.44 -34.02,57.77 -8.87,18.33 -12.32,30.06 -10.49,35.2 5.5,0.73 17.37,-7.19 35.78,-23.83 18.4,-16.57 39.96,-42.74 64.59,-78.37 1.39,-2.13 3.3,-3.45 5.65,-3.96 2.34,-0.51 4.62,-0.08 6.82,1.39 2.13,1.25 3.44,3.08 3.96,5.5 0.51,2.35 0.15,4.55 -0.95,6.74 -9.75,16.57 -16.94,30.58 -21.63,41.87 -4.62,11.29 -7.63,20.38 -8.87,27.2 -1.32,6.74 -1.68,11.88 -1.24,15.25 0.51,3.37 1.17,5.35 1.83,6.08 0.44,1.03 1.17,1.91 2.28,2.57 1.1,0.73 2.78,1.1 5.06,1.1 0.15,0 0.22,0 0.22,0 8.43,-0.15 18.69,-4.99 30.79,-14.52 12.1,-9.53 23.17,-22.8 33.22,-39.81 1.25,-2.2 3.08,-3.6 5.5,-4.18 2.35,-0.66 4.69,-0.44 6.97,0.73zm739.57 -93.48l0 0c18.04,10.33 33.29,23.24 45.83,38.78 12.54,15.55 22.95,31.9 31.23,49.13 8.36,17.16 15.1,33.36 20.24,48.53 34.24,97.37 49.71,197.6 46.41,300.68 -0.15,3.15 -1.25,5.72 -3.37,7.77 -2.05,1.98 -4.69,2.94 -7.85,2.78 -3,-0.15 -5.5,-1.25 -7.48,-3.3 -2.05,-2.13 -3.01,-4.69 -3.01,-7.85 3.15,-100.45 -11.95,-198.03 -45.31,-292.84 -4.92,-14.29 -11.22,-29.54 -18.92,-45.82 -7.77,-16.28 -17.45,-31.6 -29.11,-45.97 -11.66,-14.37 -25.89,-25.95 -42.67,-34.68 -0.81,-0.44 -1.69,-0.81 -2.57,-1.1 -0.73,-0.29 -1.39,-0.59 -2.13,-0.88 -3.15,2.78 -6.38,5.42 -9.68,7.99 -14.59,12.02 -29.11,23.97 -43.62,35.85 -58.29,103.82 -123.77,202.8 -196.5,296.87 -27.79,36.95 -60.93,76.04 -99.34,117.31 -38.5,41.21 -82.27,79.18 -131.39,113.79 -22.87,15.47 -43.33,23.24 -61.22,23.24 -12.76,0 -23.76,-3.96 -33.07,-11.8 -14.29,-12.17 -20.75,-32.7 -19.35,-61.44 3.01,-65.33 28.89,-136.23 77.57,-212.7 80.65,-125.74 186.23,-224.87 316.81,-297.46 62.03,-34.09 116.36,-48.68 163.06,-43.84 70.61,-135.5 114.23,-259.99 130.81,-373.57 2.42,-15.32 4.03,-31.45 4.76,-48.53 0.66,-17.01 -0.59,-33.87 -3.89,-50.59 -3.3,-16.64 -9.75,-32.26 -19.35,-46.71 -24.34,-33.21 -61.22,-52.2 -110.64,-56.89 -23.17,-1.47 -45.97,0.15 -68.26,4.69 -22.36,4.62 -43.41,10.27 -63.2,17.01 -112.11,36.88 -208.3,90.26 -288.58,159.99 -80.21,69.72 -137.48,149.79 -171.71,240.19 -1.83,5.13 -2.86,10.12 -3.08,15.03 -0.22,4.84 0.36,8.65 1.76,11.36 0.73,1.17 1.76,1.83 3,2.13 3.08,0.73 5.35,2.27 6.89,4.62 1.61,2.35 2.2,5.06 1.76,8.06 -0.73,3.01 -2.27,5.35 -4.62,6.97 -2.42,1.68 -5.13,2.2 -8.28,1.61 -7.92,-1.54 -13.78,-5.87 -17.6,-12.83 -3.59,-6.89 -5.13,-14.44 -4.62,-22.58 0.51,-8.14 1.98,-15.47 4.4,-21.93 35.48,-93.48 94.51,-176.26 177.06,-248.33 82.56,-72 181.54,-127.06 297.02,-165.19 20.61,-6.82 42.75,-12.68 66.43,-17.59 23.76,-4.84 48.17,-6.53 73.39,-4.92 27.21,2.13 51.84,9.02 73.91,20.6 21.99,11.59 39.67,26.84 52.79,45.75 11.07,16.5 18.48,34.02 22.36,52.64 3.89,18.62 5.5,37.24 4.84,55.87 -0.66,18.55 -2.35,36.29 -5.06,53.01 -16.72,114.16 -60.05,238.8 -129.92,374 3.3,0.95 6.45,2.05 9.61,3.23 0.29,0 0.59,0.07 0.88,0.22 137.04,-112.32 274.22,-223.26 411.54,-332.95 3.59,-3.15 8.43,-6.16 14.44,-8.94 6.01,-2.79 12.24,-3.52 18.69,-2.28 2.42,0.59 5.06,1.91 7.92,3.96 2.86,2.13 5.28,5.42 7.33,10.04 0.96,2.86 0.96,5.65 -0.15,8.36 -1.1,2.71 -3,4.62 -5.87,5.79 -2.86,1.17 -5.64,1.17 -8.28,0.15 -2.64,-1.1 -4.62,-3.08 -5.94,-5.94 -0.15,-0.44 -0.3,-0.73 -0.44,-0.95 -0.15,-0.22 -0.22,-0.37 -0.22,-0.37 0,0 0,0 0,0 -0.66,-0.15 -2.28,0.3 -4.77,1.32 -2.56,1.03 -5.57,2.94 -9.16,5.79 -134.47,107.26 -268.65,215.78 -402.53,325.61zm-75.59 21.12l0 0c3.15,-5.79 6.23,-11.51 9.24,-17.23 -2.35,0 -4.69,0 -7.11,0 -38.71,0 -83.59,14.01 -134.69,41.87 -127.28,70.9 -230.3,167.75 -308.9,290.42 -46.55,73.1 -71.27,140.33 -74.12,201.7 -0.96,21.78 2.93,36.51 11.8,44.28 6.74,5.28 14.52,7.4 23.24,6.24 8.72,-1.17 17.16,-3.74 25.22,-7.85 8.07,-4.1 14.52,-7.85 19.21,-11.29 48.03,-33.8 90.84,-70.9 128.46,-111.37 37.69,-40.48 70.17,-78.89 97.52,-115.26 60.34,-77.72 115.55,-159.1 165.85,-244.01 -35.34,27.79 -50.74,34.39 -46.2,19.8 8.29,-13.49 34.02,-37.98 77.13,-73.46 1.25,-2.35 2.49,-4.55 3.67,-6.67 3.3,-5.72 6.53,-11.44 9.68,-17.16zm31.52 -13.12l0 0c0.3,-0.15 0.51,-0.3 0.66,-0.44 0.15,-0.15 0.3,-0.29 0.44,-0.44 0,0 -0.07,-0.07 -0.22,-0.22 0,0 -0.07,0 -0.22,0 -0.15,0.15 -0.22,0.29 -0.22,0.44 -0.15,0.29 -0.29,0.51 -0.44,0.66zm314.91 141.14l0 0c16.35,1.39 34.68,-2.28 54.99,-11.07 20.38,-8.8 36.51,-18.33 48.53,-28.45 2.05,-1.76 4.26,-2.49 6.67,-2.28 2.42,0.22 4.55,1.25 6.24,3.08 1.76,2.05 2.49,4.25 2.27,6.67 -0.22,2.42 -1.25,4.55 -3.15,6.24 -7.7,6.74 -17.67,13.49 -29.91,20.31 -12.24,6.82 -25.29,12.54 -39.22,17.31 -13.86,4.69 -26.98,7.11 -39.3,7.11 -3.3,0 -6.45,-0.22 -9.46,-0.66 -13.49,-1.91 -23.39,-7.7 -29.85,-17.45 -11.44,-17.6 -5.72,-47.29 17.16,-89.08 1.32,-2.35 3.15,-3.81 5.5,-4.4 2.34,-0.66 4.69,-0.44 6.96,0.73 2.13,1.25 3.6,3.08 4.33,5.42 0.66,2.42 0.44,4.7 -0.88,7.04 -8.43,15.84 -14.08,28.67 -16.94,38.42 -2.94,9.75 -4.1,17.08 -3.6,22 0.51,4.98 1.4,8.21 2.72,9.83 3.3,5.13 8.94,8.21 16.93,9.24zm10.56 -126.77l0 0c2.57,0 4.76,0.96 6.67,2.79 1.83,1.91 2.79,4.1 2.79,6.67 0,2.57 -0.96,4.84 -2.79,6.67 -1.91,1.83 -4.1,2.78 -6.67,2.78 -2.57,0 -4.84,-0.95 -6.67,-2.78 -1.83,-1.83 -2.78,-4.1 -2.78,-6.67 0,-2.57 0.95,-4.76 2.78,-6.67 1.83,-1.83 4.1,-2.79 6.67,-2.79zm237.34 65.77l0 0c2.42,-0.73 4.76,-0.59 6.96,0.37 2.28,1.02 3.81,2.71 4.62,4.98 0.88,2.42 0.81,4.69 -0.29,6.75 -1.1,2.05 -2.79,3.59 -5.06,4.62l-6.45 2.13c-42.96,14.95 -77.06,27.27 -102.43,36.95 0.15,4.62 -0.59,9.01 -2.13,13.34 -2.05,4.69 -4.69,8.72 -7.99,12.02 -3.3,3.3 -6.6,6.01 -9.9,8.14 -18.04,12.76 -38.13,20.53 -60.34,23.24 -2.27,0.29 -4.4,0.36 -6.45,0.22 -6.45,-0.29 -11.22,-2.64 -14.37,-7.11 -4.62,-6.74 -3.67,-14.52 2.78,-23.39 4.62,-6.89 30.28,-19.35 77.13,-37.39 -1.17,-2.27 -2.13,-4.1 -3.01,-5.35 -2.42,-3.74 -5.21,-7.55 -8.36,-11.44 -4.03,-4.69 -7.84,-9.9 -11.44,-15.62 -8.14,-14.66 -9.17,-27.86 -3,-39.74 2.42,-4.33 5.57,-7.92 9.38,-10.78 3.74,-2.86 7.55,-5.2 11.29,-7.11 22.44,-11.44 46.34,-16.94 71.71,-16.5 1.47,-0.15 3.81,0.22 7.11,1.1 3.3,0.81 6.31,2.71 9.02,5.58 2.57,3 3.52,6.53 2.78,10.49 -0.44,2.42 -1.32,4.4 -2.57,5.94 -1.32,1.47 -2.42,2.57 -3.22,3.3 -8.21,6.89 -17.45,12.17 -27.71,15.91 -2.28,0.88 -4.55,0.81 -6.75,-0.22 -2.27,-1.02 -3.89,-2.64 -4.84,-4.91 -0.88,-2.49 -0.81,-4.76 0.22,-6.89 0.96,-2.13 2.71,-3.67 5.13,-4.55 5.72,-1.98 11,-4.69 15.91,-8.14 -20.67,0.3 -40.11,5.13 -58.43,14.59 -2.42,1.32 -4.92,2.79 -7.34,4.55 -2.42,1.69 -4.32,3.74 -5.79,6.01 -1.69,3.45 -2.2,7.19 -1.39,11.37 0.81,4.18 2.27,7.92 4.4,11.36 2.71,4.47 5.94,8.87 9.68,13.34 3.44,4.03 6.67,8.29 9.68,12.91 1.68,2.71 3.22,5.5 4.47,8.35 26.76,-10.19 60.34,-22.29 100.74,-36.29l6.24 -2.13zm-133.37 75.15l0 0c6.01,-4.32 9.83,-8.28 11.37,-12.02 -23.76,9.31 -40.25,16.2 -49.42,20.75 -9.17,4.47 -14.15,7.48 -15.03,8.87 -0.66,1.02 -1.17,1.83 -1.47,2.34 0.73,0.15 1.61,0.15 2.78,0 19.06,-2.42 36.29,-9.09 51.76,-19.94zm300.91 -76.03l0 0c1.68,-1.83 3.81,-2.94 6.23,-3.15 2.42,-0.15 4.62,0.59 6.67,2.27 1.83,1.76 2.86,3.81 3.08,6.24 0.22,2.42 -0.51,4.69 -2.27,6.67 -19.43,22.36 -35.34,38.35 -47.73,48.1 -12.39,9.75 -22.14,15.47 -29.25,17.08 -7.11,1.68 -12.46,1.47 -16.21,-0.51 -5.86,-2.86 -9.67,-6.89 -11.51,-12.17 -1.76,-5.21 -2.49,-9.61 -2.28,-13.2 1.03,-11 3.38,-22.07 7.04,-33.07 3.6,-11 7.48,-21.56 11.44,-31.6 0.15,-0.3 0.22,-0.51 0.22,-0.66 0.15,-0.08 0.29,-0.3 0.44,-0.59 -28.08,24.63 -62.18,55.79 -102.43,93.63 -1.76,1.61 -3.74,2.42 -6.01,2.57 -1.76,0 -3.37,-0.44 -4.98,-1.25 -3.67,-2.64 -5.06,-6.01 -4.04,-10.34 12.03,-41.28 30.72,-79.84 56.02,-115.77 1.47,-1.98 3.37,-3.22 5.79,-3.66 2.49,-0.44 4.76,0.07 6.89,1.54 1.98,1.54 3.22,3.52 3.66,5.87 0.44,2.35 -0.07,4.62 -1.54,6.74 -16.28,23.25 -30.06,48.47 -41.21,75.67 16.57,-15.47 30.72,-28.52 42.46,-39.08 11.65,-10.63 21.33,-19.28 28.96,-26.03 7.7,-6.74 13.86,-11.88 18.48,-15.47 4.62,-3.6 8.21,-6.08 10.78,-7.48 2.49,-1.47 4.33,-2.2 5.57,-2.28 1.17,-0.07 2.28,0 3.3,0.3 2.28,0.88 4.04,2.34 5.13,4.4 1.17,2.13 1.47,4.33 0.88,6.82 -2.72,9.53 -6.45,20.16 -11.15,31.75 -3.89,9.46 -7.55,19.28 -11,29.55 -3.44,10.26 -5.57,20.16 -6.45,29.77 0,0.66 0.15,1.61 0.37,2.64 0.22,1.1 0.51,2.05 0.88,2.93 0.3,0.88 0.81,1.39 1.39,1.69 0,0 0.37,0.07 1.17,0.15 0.73,0.07 1.98,-0.15 3.52,-0.59 1.62,-0.37 3.6,-1.25 6.16,-2.57 2.49,-1.25 5.57,-3.23 9.31,-5.87 3.74,-2.64 8.06,-6.23 13.12,-10.63 4.98,-4.47 10.78,-9.97 17.3,-16.57 6.45,-6.6 13.78,-14.52 21.78,-23.83zm213.5 2.78l0 0c1.69,-1.98 3.81,-3.08 6.24,-3.3 2.42,-0.22 4.62,0.51 6.67,2.2 1.98,1.76 3,3.81 3.15,6.24 0.15,2.49 -0.51,4.69 -2.13,6.67 -14.74,16.94 -30.79,30.57 -48.24,41.06 -17.37,10.41 -34.09,16.87 -50.22,19.21 -16.13,2.35 -29.48,-0.22 -40.03,-7.62 -3,-1.98 -5.94,-4.99 -8.65,-8.95 -2.71,-3.89 -4.55,-8.94 -5.57,-15.1 -6.89,7.7 -14.15,14.89 -21.92,21.48 -6.31,6.01 -13.94,10.41 -22.95,13.27 -2.57,0.59 -5.06,0.88 -7.55,0.88 -8.72,0 -15.98,-3.37 -21.92,-10.12 -7.11,-9.38 -8.36,-22.51 -3.59,-39.3 5.28,-17.01 13.86,-32.48 25.74,-46.26 11.88,-13.86 23.68,-23.53 35.26,-29.11 12.17,-5.72 22.88,-7.33 32.19,-4.69 9.75,3.01 16.57,9.09 20.46,18.26 1.98,1.1 3.3,2.71 4.03,4.76 0.73,2.13 0.66,4.32 -0.22,6.6 -4.69,11.58 -10.27,22.58 -16.72,33.07 -7.48,20.01 -6.74,33.58 2.13,40.62 10.99,6.96 27.64,6.16 49.93,-2.57 22.29,-8.8 43.55,-24.49 63.94,-47.29zm-132.56 1.32l0 0c3.01,-8.21 7.48,-17.3 13.35,-27.27 -0.59,-2.49 -1.76,-4.62 -3.45,-6.38 -1.76,-1.76 -3.66,-2.93 -5.79,-3.52 -1.32,-0.3 -2.72,-0.44 -4.33,-0.44 -4.1,0 -9.24,1.32 -15.25,4.1 -9.75,4.69 -19.58,12.98 -29.62,24.86 -10.04,11.95 -17.16,24.93 -21.48,39.15 -3,10.71 -2.86,18.33 0.44,22.73 1.39,1.76 3.08,2.78 5.06,3.15 1.91,0.36 3.74,0.22 5.42,-0.37 5.5,-1.69 10.7,-4.84 15.69,-9.46 15.47,-13.12 28.81,-28.67 39.96,-46.56zm298.78 -4.1l0 0c1.68,-1.83 3.81,-2.94 6.23,-3.15 2.42,-0.15 4.62,0.59 6.67,2.27 1.83,1.76 2.86,3.81 3.08,6.24 0.22,2.42 -0.51,4.69 -2.27,6.67 -19.43,22.36 -35.34,38.35 -47.73,48.1 -12.39,9.75 -22.14,15.47 -29.25,17.08 -7.11,1.68 -12.46,1.47 -16.21,-0.51 -5.86,-2.86 -9.67,-6.89 -11.51,-12.17 -1.76,-5.21 -2.49,-9.61 -2.28,-13.2 1.03,-11 3.38,-22.07 7.04,-33.07 3.6,-11 7.48,-21.56 11.44,-31.6 0.15,-0.3 0.22,-0.51 0.22,-0.66 0.15,-0.08 0.29,-0.3 0.44,-0.59 -28.08,24.63 -62.18,55.79 -102.43,93.63 -1.76,1.61 -3.74,2.42 -6.01,2.57 -1.76,0 -3.37,-0.44 -4.98,-1.25 -3.67,-2.64 -5.06,-6.01 -4.04,-10.34 12.03,-41.28 30.72,-79.84 56.02,-115.77 1.47,-1.98 3.37,-3.22 5.79,-3.66 2.49,-0.44 4.76,0.07 6.89,1.54 1.98,1.54 3.22,3.52 3.66,5.87 0.44,2.35 -0.07,4.62 -1.54,6.74 -16.28,23.25 -30.06,48.47 -41.21,75.67 16.57,-15.47 30.72,-28.52 42.46,-39.08 11.65,-10.63 21.33,-19.28 28.96,-26.03 7.7,-6.74 13.86,-11.88 18.48,-15.47 4.62,-3.6 8.21,-6.08 10.78,-7.48 2.49,-1.47 4.33,-2.2 5.57,-2.28 1.17,-0.07 2.28,0 3.3,0.3 2.28,0.88 4.04,2.34 5.13,4.4 1.17,2.13 1.47,4.33 0.88,6.82 -2.72,9.53 -6.45,20.16 -11.15,31.75 -3.89,9.46 -7.55,19.28 -11,29.55 -3.44,10.26 -5.57,20.16 -6.45,29.77 0,0.66 0.15,1.61 0.37,2.64 0.22,1.1 0.51,2.05 0.88,2.93 0.3,0.88 0.81,1.39 1.39,1.69 0,0 0.37,0.07 1.17,0.15 0.73,0.07 1.98,-0.15 3.52,-0.59 1.62,-0.37 3.6,-1.25 6.16,-2.57 2.49,-1.25 5.57,-3.23 9.31,-5.87 3.74,-2.64 8.06,-6.23 13.12,-10.63 4.98,-4.47 10.78,-9.97 17.3,-16.57 6.45,-6.6 13.78,-14.52 21.78,-23.83z" />
      <path class="fil0"
        d="M3778.07 695.67l0 0c2.13,-1.54 4.47,-2.2 6.89,-2.05 2.42,0.22 4.4,1.32 6.01,3.37 1.69,1.98 2.49,4.18 2.28,6.67 -0.22,2.42 -1.32,4.47 -3.38,6.24 -58.29,48.83 -101.47,73.25 -129.7,73.25 -9.9,0 -18.04,-3.01 -24.49,-9.02 -4.77,-4.62 -8.21,-10.56 -10.34,-17.89 -8.58,6.45 -16.72,11.58 -24.49,15.25 -7.11,3.74 -14.66,6.67 -22.51,8.87 -7.92,2.13 -15.69,2.28 -23.46,0.37 -15.62,-4.99 -25.37,-16.42 -29.4,-34.31 -2.28,-12.76 -0.08,-26.69 6.67,-41.72 10.12,-22.59 25.88,-38.2 47.21,-46.78 9.75,-3.6 18.26,-4.84 25.59,-3.67 7.26,1.1 13.27,3.15 18.03,6.01 4.18,2.57 7.77,5.5 10.93,8.8 11.36,-36.66 26.32,-73.4 45.02,-110.2 18.7,-36.81 36.29,-66.5 52.72,-89.16 27.94,-38.19 49.79,-52.71 65.55,-43.55 4.03,1.98 7.62,5.72 10.92,11.15 3.3,5.43 4.92,13.49 4.76,24.27 -1.47,23.61 -10.99,53.09 -28.59,88.35 -17.6,35.34 -39.37,70.53 -65.18,105.73 -25.88,35.12 -51.91,64.38 -78.08,87.76 1.02,7.85 3.44,13.64 7.33,17.38 1.68,1.98 5.06,3.3 9.97,3.96 4.91,0.66 12.25,-0.73 21.99,-4.1 9.75,-3.3 22.59,-10.05 38.5,-20.17 15.84,-10.12 35.63,-25 59.24,-44.8zm-134.47 9.9l0 0c-0.88,4.62 -1.54,9.02 -2.13,13.34 24.49,-23.97 48.25,-52.35 71.34,-85.27 23.02,-32.99 42.16,-65.11 57.34,-96.49 15.18,-31.38 23.31,-56.75 24.49,-76.25 0.29,-10.04 -1.91,-16.35 -6.45,-18.92 -0.59,-0.58 -2.49,-0.07 -5.72,1.4 -3.23,1.54 -7.77,5.13 -13.71,10.78 -5.94,5.64 -13.34,14.44 -22.21,26.32 -21.78,30.21 -41.8,64.67 -59.98,103.3 -18.19,38.64 -31.46,74.42 -39.74,107.2 0.58,1.83 1.02,3.74 1.32,5.57 0.29,4.03 -1.25,7.04 -4.55,9.02zm-20.83 30.06l0 0c-0.15,-12.91 1.62,-27.35 5.13,-43.41 -2.71,-6.31 -7.4,-11.66 -14.15,-16.06 -4.62,-2.71 -9.38,-4.1 -14.37,-4.1 -4.33,0 -8.73,0.96 -13.35,2.78 -16.72,6.75 -29.18,19.14 -37.39,37.18 -5.13,11.73 -6.82,22.14 -5.13,31.16 1.02,4.84 2.93,9.09 5.94,12.76 2.93,3.67 6.38,6.09 10.41,7.19 4.84,1.17 10.26,0.81 16.2,-1.02 5.94,-1.91 11.59,-4.18 16.87,-6.89 9.46,-4.62 19.35,-11.15 29.84,-19.57zm353.18 -30.06l0 0c1.69,-1.98 3.81,-3.08 6.24,-3.3 2.42,-0.22 4.62,0.51 6.67,2.2 1.98,1.76 3,3.81 3.15,6.24 0.15,2.49 -0.51,4.69 -2.13,6.67 -14.74,16.94 -30.79,30.57 -48.24,41.06 -17.37,10.41 -34.09,16.87 -50.22,19.21 -16.13,2.35 -29.48,-0.22 -40.03,-7.62 -3,-1.98 -5.94,-4.99 -8.65,-8.95 -2.71,-3.89 -4.55,-8.94 -5.57,-15.1 -6.89,7.7 -14.15,14.89 -21.92,21.48 -6.31,6.01 -13.94,10.41 -22.95,13.27 -2.57,0.59 -5.06,0.88 -7.55,0.88 -8.72,0 -15.98,-3.37 -21.92,-10.12 -7.11,-9.38 -8.36,-22.51 -3.59,-39.3 5.28,-17.01 13.86,-32.48 25.74,-46.26 11.88,-13.86 23.68,-23.53 35.26,-29.11 12.17,-5.72 22.88,-7.33 32.19,-4.69 9.75,3.01 16.57,9.09 20.46,18.26 1.98,1.1 3.3,2.71 4.03,4.76 0.73,2.13 0.66,4.32 -0.22,6.6 -4.69,11.58 -10.27,22.58 -16.72,33.07 -7.48,20.01 -6.74,33.58 2.13,40.62 10.99,6.96 27.64,6.16 49.93,-2.57 22.29,-8.8 43.55,-24.49 63.94,-47.29zm-132.56 1.32l0 0c3.01,-8.21 7.48,-17.3 13.35,-27.27 -0.59,-2.49 -1.76,-4.62 -3.45,-6.38 -1.76,-1.76 -3.66,-2.93 -5.79,-3.52 -1.32,-0.3 -2.72,-0.44 -4.33,-0.44 -4.1,0 -9.24,1.32 -15.25,4.1 -9.75,4.69 -19.58,12.98 -29.62,24.86 -10.04,11.95 -17.16,24.93 -21.48,39.15 -3,10.71 -2.86,18.33 0.44,22.73 1.39,1.76 3.08,2.78 5.06,3.15 1.91,0.36 3.74,0.22 5.42,-0.37 5.5,-1.69 10.7,-4.84 15.69,-9.46 15.47,-13.12 28.81,-28.67 39.96,-46.56zm252.59 6.38l0 0c2.27,1.17 3.81,2.93 4.62,5.21 0.81,2.27 0.66,4.55 -0.3,6.89 -7.48,15.32 -16.35,27.5 -26.54,36.59 -10.26,9.09 -20.97,15.61 -32.12,19.57 -11.22,3.89 -21.55,5.87 -31.16,5.87 -1.83,0 -3.66,-0.07 -5.35,-0.22 -18.77,-1.69 -30.28,-8.29 -34.6,-19.72 -3.01,-11.73 -1.69,-22.73 3.96,-32.85 5.64,-10.19 11.51,-18.62 17.52,-25.37 0.15,0 0.3,-0.07 0.44,-0.22 0,-0.15 0.07,-0.22 0.22,-0.22 -4.98,-3.15 -9.38,-6.89 -13.12,-11.15 -5.13,-6.6 -7.55,-12.39 -7.26,-17.45 0,-0.59 0,-1.03 0,-1.47 -0.29,-4.62 1.76,-10.04 6.31,-16.42 4.47,-6.38 11.88,-11.44 21.99,-15.18 6.74,-2.71 13.2,-2.78 19.36,-0.22 4.4,1.91 7.4,4.69 8.8,8.36 1.47,4.18 1.39,8.43 -0.22,12.68 -1.54,4.33 -3.89,7.85 -6.89,10.56 -6.67,5.87 -13.86,10.34 -21.48,13.34 2.93,1.98 6.01,3.67 9.46,5.13 2.49,1.03 4.18,2.64 5.21,4.91 0.81,2.28 0.81,4.7 0,7.11 -1.62,3.15 -4.47,7.19 -8.65,12.03 -4.99,5.57 -9.68,12.02 -14.15,19.35 -4.4,7.26 -5.79,14.44 -4.1,21.48 0.29,1.1 1.98,2.49 5.06,4.04 3.08,1.61 7.55,2.56 13.42,3 12.46,1.17 25.95,-2.13 40.4,-9.75 14.44,-7.7 26.76,-21.48 36.95,-41.57 1.17,-2.27 2.86,-3.89 5.13,-4.69 2.35,-0.88 4.69,-0.73 7.11,0.37zm-104.85 -37.54l0 0c6.6,-2.28 12.68,-5.87 18.26,-10.78 0.58,-0.44 1.02,-0.95 1.32,-1.68 -0.88,0 -1.91,0.29 -3.23,0.88 -8.73,3.52 -14.15,7.4 -16.35,11.59z" />
    </g>
  </g>
</svg>