<?xml version="1.0" encoding="UTF-8"?>
<!DOCTYPE svg PUBLIC "-//W3C//DTD SVG 1.1//EN" "http://www.w3.org/Graphics/SVG/1.1/DTD/svg11.dtd">
<!-- Creator: CorelDRAW -->
<svg xmlns="http://www.w3.org/2000/svg" xml:space="preserve" width="363.259mm" height="34.3377mm" version="1.1" style="shape-rendering:geometricPrecision; text-rendering:geometricPrecision; image-rendering:optimizeQuality; fill-rule:evenodd; clip-rule:evenodd"
viewBox="0 0 32151.33 3039.16"
 xmlns:xlink="http://www.w3.org/1999/xlink"
 xmlns:xodm="http://www.corel.com/coreldraw/odm/2003">
 <defs>
  <style type="text/css">
   <![CDATA[
    .fil4 {fill:#CC3D42;fill-rule:nonzero}
    .fil3 {fill:#F6E8EB;fill-rule:nonzero}
    .fil1 {fill:white;fill-rule:nonzero}
    .fil5 {fill:white;fill-rule:nonzero;fill-opacity:0.078431}
    .fil2 {fill:url(#id2);fill-rule:nonzero}
    .fil0 {fill:url(#id3);fill-rule:nonzero}
   ]]>
  </style>
   <mask id="id0">
  <linearGradient id="id1" gradientUnits="userSpaceOnUse" x1="27558.81" y1="-543.17" x2="4449.83" y2="3400.84">
   <stop offset="0" style="stop-opacity:1; stop-color:white"/>
   <stop offset="0.431373" style="stop-opacity:0.501961; stop-color:white"/>
   <stop offset="1" style="stop-opacity:0; stop-color:white"/>
  </linearGradient>
    <rect style="fill:url(#id1)" x="-3.36" y="-3.35" width="30952.15" height="3045.89"/>
   </mask>
  <linearGradient id="id2" gradientUnits="userSpaceOnUse" x1="7794.78" y1="2244.71" x2="19282.88" y2="361.97">
   <stop offset="0" style="stop-opacity:1; stop-color:#FDFDFD"/>
   <stop offset="0.0509804" style="stop-opacity:1; stop-color:#FDFDFD"/>
   <stop offset="1" style="stop-opacity:1; stop-color:#E6E6E6"/>
  </linearGradient>
  <linearGradient id="id3" gradientUnits="userSpaceOnUse" x1="27628.66" y1="-699.48" x2="1569.68" y2="3490.61">
   <stop offset="0" style="stop-opacity:1; stop-color:gray"/>
   <stop offset="0.431373" style="stop-opacity:1; stop-color:#BFBFBF"/>
   <stop offset="1" style="stop-opacity:1; stop-color:white"/>
  </linearGradient>
 </defs>
 <g id="Layer_x0020_1">
  <metadata id="CorelCorpID_0Corel-Layer"/>
  <path class="fil0" style="mask:url(#id0)" d="M0.01 3039.16c1422.11,-40.33 2879.02,-150.52 4332.21,-370.39 3692.88,-558.78 6307.29,-1400.06 10865.31,-1695.21 3113.41,-229.07 12776.92,-392.6 15747.89,-973.54l-30945.41 0 0 3039.14z"/>
  <path class="fil1" d="M0.01 2404.71c525.98,-35.47 1062.25,-90.42 1605.86,-169.66 2845.75,-414.84 5599.34,-1257.83 9558.26,-1487.39 3096.25,-207.6 9144.32,-11.31 14222.39,-240.27 1305,-66.68 4879.39,-283.04 6738.1,-507.34l-32124.57 0 0 2404.67 -0.04 -0.02z"/>
  <path class="fil2" d="M0.01 2386.85c509.15,-34.39 1027.64,-87.6 1552.75,-164.47 2840.6,-415.73 5125.15,-1217.8 9536.21,-1505.74 3092.71,-201.92 6536.36,-246.99 10239.46,-437.98 1201.95,-61.99 2776.39,-142.86 4386.99,-278.59l-25715.41 0 0 2386.82 0.01 -0.04z"/>
  <path class="fil3" d="M0.01 2287.45c2393.77,-356.92 5565.05,-1373.75 8938.29,-1666.43 2508.63,-169.21 4333.23,-202.9 8078.56,-163.95 1193.27,-61.67 1939.51,-271.49 3509.78,-438.09l-11177.7 -18.97 -9348.92 0 0 2287.43 -0.02 0.01z"/>
  <path class="fil4" d="M0.01 1833.79c605.83,-118.46 1209.27,-247.72 1820.65,-377.84 1852.48,-394.27 3893.21,-813.11 6428.85,-986.87 3462.66,-237.32 7525.74,1.12 11951.12,29.09 3705.98,23.42 7829.11,-121.42 11950.71,-468.39l0 -29.72 -32151.32 0 0 1833.75 0 -0.02z"/>
  <path class="fil5" d="M0.01 1098.61c662.39,-72.35 1320.94,-152.64 1988.96,-233.55 1862.32,-225.52 3914.19,-465.06 6464.15,-562.43 3483.07,-133.01 7571.34,9.61 12025.7,31.05 4187.31,20.14 6904.22,-81.57 11510.9,-333.68l-31989.68 0 0 1098.58 -0.04 0.03z"/>
 </g>
</svg>
