<?xml version="1.0" encoding="UTF-8"?>
<!DOCTYPE svg PUBLIC "-//W3C//DTD SVG 1.1//EN" "http://www.w3.org/Graphics/SVG/1.1/DTD/svg11.dtd">
<!-- Creator: CorelDRAW -->
<svg xmlns="http://www.w3.org/2000/svg" xml:space="preserve" width="363.26mm" height="29.3881mm" version="1.1" style="shape-rendering:geometricPrecision; text-rendering:geometricPrecision; image-rendering:optimizeQuality; fill-rule:evenodd; clip-rule:evenodd"
viewBox="0 0 10794.43 873.28"
 xmlns:xlink="http://www.w3.org/1999/xlink"
 xmlns:xodm="http://www.corel.com/coreldraw/odm/2003">
 <defs>
  <style type="text/css">
   <![CDATA[
    .fil4 {fill:#CC3D42;fill-rule:nonzero}
    .fil1 {fill:white;fill-rule:nonzero}
    .fil5 {fill:white;fill-rule:nonzero;fill-opacity:0.078431}
    .fil3 {fill:#F6E8EB;fill-rule:nonzero}
    .fil0 {fill:url(#id2);fill-rule:nonzero}
    .fil2 {fill:url(#id3);fill-rule:nonzero}
   ]]>
  </style>
     <mask id="id0">
  <linearGradient id="id1" gradientUnits="userSpaceOnUse" x1="9276.51" y1="-201.39" x2="527.8" y2="1003.2">
   <stop offset="0" style="stop-opacity:1; stop-color:white"/>
   <stop offset="0.431373" style="stop-opacity:0.501961; stop-color:white"/>
   <stop offset="1" style="stop-opacity:0; stop-color:white"/>
  </linearGradient>
      <rect style="fill:url(#id1)" x="-1157.69" y="-35.18" width="11715.85" height="927.77"/>
     </mask>
  <linearGradient id="id2" gradientUnits="userSpaceOnUse" x1="9276.51" y1="-201.39" x2="527.8" y2="1003.2">
   <stop offset="0" style="stop-opacity:1; stop-color:gray"/>
   <stop offset="0.431373" style="stop-opacity:1; stop-color:#BFBFBF"/>
   <stop offset="1" style="stop-opacity:1; stop-color:white"/>
  </linearGradient>
  <linearGradient id="id3" gradientUnits="userSpaceOnUse" x1="2617.13" y1="645.93" x2="6474.05" y2="104.17">
   <stop offset="0" style="stop-opacity:1; stop-color:#FDFDFD"/>
   <stop offset="0" style="stop-opacity:1; stop-color:#FDFDFD"/>
   <stop offset="0.0509804" style="stop-opacity:1; stop-color:#FDFDFD"/>
   <stop offset="1" style="stop-opacity:1; stop-color:#E6E6E6"/>
  </linearGradient>
 </defs>
 <g id="Layer_x0020_1">
  <metadata id="CorelCorpID_0Corel-Layer"/>
  <g id="_2577582689824">
   <g>
    <path class="fil0" style="mask:url(#id0)" d="M-0 873.28c477.46,-11.59 966.6,-43.25 1454.49,-106.43 1239.84,-160.56 2117.6,-402.3 3647.9,-487.11 1045.29,-65.82 4289.7,-112.81 5287.17,-279.74l-10389.56 0 0 873.28z"/>
    <path class="fil1" d="M-0 690.97c176.59,-10.19 356.64,-25.98 539.15,-48.75 955.43,-119.2 1879.91,-361.43 3209.07,-427.39 1039.53,-59.65 3070.1,-3.25 4775,-69.04 438.14,-19.16 1638.2,-81.33 2262.24,-145.78l-10785.45 0 0 690.97z"/>
    <path class="fil2" d="M-0 685.84c170.94,-9.88 345.02,-25.17 521.32,-47.26 953.7,-119.46 1720.71,-349.93 3201.67,-432.67 1038.34,-58.02 2194.51,-70.97 3437.78,-125.85 403.54,-17.81 932.14,-41.05 1472.88,-80.05l-8633.65 0 0 685.84z"/>
    <path class="fil3" d="M-0 657.28c803.68,-102.56 1868.4,-394.74 3000.93,-478.84 842.24,-48.62 1454.83,-58.3 2712.28,-47.11 400.63,-17.72 651.17,-78.01 1178.37,-125.88l-3752.78 -5.45 -3138.79 0 0 657.28z"/>
   </g>
   <path class="fil4" d="M-0 526.92c203.4,-34.04 406,-71.18 611.26,-108.57 621.95,-113.29 1307.1,-233.64 2158.41,-283.57 1162.55,-68.19 2526.68,0.32 4012.45,8.36 1244.24,6.73 2628.53,-34.89 4012.31,-134.59l0 -8.54 -10794.43 0 0 526.92z"/>
   <path class="fil5" d="M-0 315.67c222.39,-20.79 443.49,-43.86 667.77,-67.11 625.25,-64.8 1314.14,-133.63 2170.26,-161.61 1169.4,-38.22 2541.99,2.76 4037.49,8.92 1405.84,5.79 2318.01,-23.44 3864.65,-95.88l-10740.16 0 0 315.67z"/>
  </g>
 </g>
</svg>
